<?xml version="1.0" encoding="UTF-8" standalone="no"?>
<!DOCTYPE svg PUBLIC "-//W3C//DTD SVG 1.1//EN" "http://www.w3.org/Graphics/SVG/1.1/DTD/svg11.dtd">
<svg version="1.1" xmlns="http://www.w3.org/2000/svg" xmlns:xlink="http://www.w3.org/1999/xlink" preserveAspectRatio="xMidYMid meet" viewBox="0 0 300 300" width="300" height="300"><defs><path d="M297.93 150C297.93 231.41 231.84 297.5 150.43 297.5C69.02 297.5 2.93 231.41 2.93 150C2.93 68.59 69.02 2.5 150.43 2.5C231.84 2.5 297.93 68.59 297.93 150Z" id="i16wAPHG1M"></path><path d="M145.58 108.86C145.75 112.93 148.6 116.39 152.55 117.33C154.62 117.85 164.96 120.45 183.57 125.13C188.14 141.18 190.68 150.09 191.18 151.87C192.56 156.7 197.57 159.49 202.38 158.11C207.19 156.74 209.98 151.71 208.61 146.89C208.61 146.88 208.61 146.88 208.61 146.88C207.7 143.7 200.46 118.28 199.55 115.1C198.66 111.99 196.18 109.58 193.04 108.79C189.43 107.88 160.56 100.62 156.95 99.71C156.08 99.48 155.17 99.38 154.27 99.42C149.27 99.62 145.38 103.85 145.58 108.86Z" id="a1B1GWrDoq"></path><path d="M150.05 164.98C150.04 166.12 150.2 167.24 150.52 168.33C151.81 172.93 162.12 209.77 163.41 214.37C163.67 215.32 164.06 216.22 164.55 217.06C167.18 221.54 188.2 257.34 190.83 261.82C193.93 267.26 200.85 269.15 206.28 266.04C211.7 262.93 213.59 255.99 210.49 250.55C210.44 250.47 210.39 250.38 210.34 250.3C208.64 247.4 200.12 232.91 184.8 206.81C177.31 180.04 173.15 165.17 172.31 162.19C171.01 157.27 166.58 153.82 161.5 153.76C155.25 153.69 150.12 158.72 150.05 164.98Z" id="c1SOpeexNc"></path><path d="M138.66 168.85C135.54 172.08 110.57 197.92 107.44 201.15C106.44 202.2 105.64 203.42 105.09 204.76C103.45 208.8 90.28 241.1 88.64 245.14C86.27 250.94 89.04 257.57 94.83 259.94C100.62 262.32 107.23 259.54 109.59 253.73C110.64 251.18 115.85 238.39 125.23 215.38C143.04 196.94 152.93 186.7 154.91 184.65C159.33 180.22 159.32 173.03 154.89 168.6C152.65 166.35 149.56 165.15 146.39 165.3C143.45 165.43 140.68 166.71 138.66 168.85Z" id="d17mahsVYq"></path><path d="M168.21 155.26C173.22 155.26 177.26 158.97 177.26 163.58C177.26 165.18 177.26 178.05 177.26 179.66C177.26 184.27 173.22 187.98 168.21 187.98C166.39 187.98 151.91 187.98 150.1 187.98C145.08 187.98 141.04 184.27 141.04 179.66C141.04 178.05 141.04 165.18 141.04 163.58C141.04 158.97 145.08 155.26 150.1 155.26C153.72 155.26 166.39 155.26 168.21 155.26Z" id="g38XHS9Y"></path><path d="M203.17 246.79C205.32 245.5 208.09 246.2 209.37 248.36C209.84 249.14 213.54 255.38 214.01 256.16C215.29 258.32 214.59 261.1 212.44 262.39C211.27 263.08 201.93 268.66 200.77 269.36C198.61 270.64 195.84 269.94 194.56 267.78C194.1 267 190.39 260.76 189.93 259.98C188.64 257.82 189.34 255.04 191.5 253.76C193.83 252.36 202 247.48 203.17 246.79Z" id="a1fQQ0WD2v"></path><path d="M185.29 252.18L204.74 240.56L207.06 244.46L187.61 256.08L185.29 252.18Z" id="ftpZS3c1w"></path><path d="M187.61 256.08L207.06 244.46L209.37 248.36L189.93 259.98L187.61 256.08Z" id="e1MZl8L0w"></path><path d="M105.29 252.34C107.6 253.31 108.69 255.96 107.73 258.28C107.38 259.12 104.6 265.82 104.26 266.66C103.29 268.98 100.65 270.08 98.34 269.11C97.08 268.59 87.05 264.41 85.79 263.88C83.48 262.92 82.39 260.27 83.35 257.95C83.7 257.11 86.48 250.4 86.83 249.57C87.79 247.24 90.43 246.15 92.74 247.12C95.25 248.16 104.03 251.82 105.29 252.34Z" id="b40HnVsil"></path><path d="M90.3 241.18L111.21 249.89L109.47 254.09L88.56 245.37L90.3 241.18Z" id="c2q8DqZqu8"></path><path d="M88.56 245.37L109.47 254.09L107.73 258.28L86.83 249.57L88.56 245.37Z" id="ccPQMGAnz"></path><path d="M174.73 172L149.5 179.03L157.57 206.29L182.58 198.55L174.73 172Z" id="a2gUtbfrpn"></path><path d="M142.06 165.52L160.68 183.76L137.46 207.58L118.85 189.34L142.06 165.52Z" id="d1mcu2oUmz"></path><path d="M140.25 78.34C140.24 78.71 140.25 79.09 140.28 79.46C140.45 82.18 141.81 103.93 141.98 106.65C142.28 112.91 147.59 117.74 153.83 117.43C160.08 117.13 164.89 111.81 164.59 105.54C164.58 105.44 164.58 105.33 164.57 105.23C164.4 102.51 163.04 80.76 162.87 78.04C162.58 72.09 157.76 67.38 151.82 67.24C145.57 67.1 140.39 72.07 140.25 78.34Z" id="e1aZmRIUyL"></path><path d="M173.6 104.66C173.83 108.29 175.64 137.29 175.86 140.91C176.49 150.95 168.93 159.54 158.92 160.17C148.91 160.79 140.34 153.22 139.71 143.18C139.49 139.55 137.68 110.56 137.45 106.93C136.83 96.89 144.38 88.3 154.4 87.67C164.41 87.05 172.98 94.62 173.6 104.66Z" id="g6Bbsst10W"></path><path d="M138.3 120.52L174.45 118.26L177.28 163.58L141.13 165.84L138.3 120.52Z" id="f18IRENKyD"></path><path d="M166.82 105.09C166.91 106.49 167.61 117.69 167.7 119.09C168.09 125.36 163.37 130.73 157.11 131.12C150.85 131.52 145.5 126.78 145.1 120.51C145.02 119.11 144.32 107.9 144.23 106.5C143.84 100.23 148.56 94.86 154.82 94.47C161.08 94.08 166.43 98.81 166.82 105.09Z" id="b2FhA61stw"></path><path d="M90.79 67.37C90.76 68.58 90.98 69.79 91.43 70.91C92.99 75 105.43 107.69 106.98 111.77C108.32 115.29 111.69 117.61 115.45 117.61C119.13 117.61 148.55 117.61 152.23 117.61C157.23 117.68 161.35 113.68 161.42 108.66C161.49 103.65 157.49 99.53 152.49 99.46C152.4 99.45 152.32 99.45 152.23 99.46C150.2 99.46 140.01 99.46 121.68 99.46C113.68 78.44 109.24 66.77 108.35 64.43C107.06 60.92 103.76 58.55 100.03 58.47C95.02 58.37 90.89 62.36 90.79 67.37Z" id="ahdGeISC4"></path><path d="M140.14 77.37C140.2 78.23 140.63 85.12 140.68 85.98C143.45 87.39 146.58 88.16 149.88 87.96C150.33 87.93 153.94 87.7 154.4 87.68C157.7 87.47 160.7 86.31 163.28 84.57C163.22 83.71 162.79 76.81 162.74 75.95C162.67 74.68 162.39 73.42 161.91 72.24C160.86 75.77 157.77 78.37 153.83 78.62C153.38 78.64 149.76 78.87 149.31 78.9C145.37 79.14 141.98 76.95 140.5 73.59C140.17 74.82 140.05 76.09 140.14 77.37Z" id="a7vNdP430"></path><path d="M169.09 32.67C170.13 49.35 170.71 58.62 170.82 60.47C171.56 72.37 162.55 82.61 150.68 83.36C150.51 83.37 149.13 83.46 148.96 83.47C137.1 84.21 126.88 75.17 126.13 63.27C126.02 61.42 125.44 52.15 124.4 35.48" id="cj2b9WW7j"></path><path d="M136.19 24.84C132.71 25.05 130.78 25.18 130.39 25.2C127.21 25.4 124.48 23.18 124.25 20C121 20.61 118.66 23.76 118.87 27.15C118.94 28.33 119.53 37.81 119.61 39C119.84 42.67 122.96 45.07 126.62 44.84C127.4 44.79 131.26 44.55 138.22 44.11L145.68 43.65C158.6 42.84 165.78 42.39 167.22 42.3C168.59 42.21 169.66 41.39 169.57 40.02C169.49 38.66 168.81 27.83 168.73 26.48C168.61 24.65 167.01 22.9 165.18 23.02C164.02 23.09 158.22 23.45 147.79 24.11L136.19 24.84Z" id="etsDVWBJN"></path><path d="M157.65 33.39C155.69 36.1 154.56 39.45 154.79 43.08C154.88 44.57 155.63 56.53 155.72 58.03C156.17 65.19 161.53 70.82 168.31 71.88C170.11 68.48 171.08 64.59 170.83 60.47C170.71 58.62 170.13 49.35 169.09 32.67C162.99 33.05 159.17 33.29 157.65 33.39Z" id="aeIbR9MwQ"></path><path d="M155.72 58.03C152.98 58.2 150.61 56.11 150.44 53.36C150.27 50.6 152.36 48.23 155.1 48.06C155.1 48.06 155.1 48.06 155.1 48.06C157.85 47.89 160.21 49.98 160.38 52.73C160.38 52.73 160.38 52.73 160.38 52.73C160.55 55.48 158.47 57.85 155.72 58.03Z" id="dou1ppTKP"></path><path d="M124.97 44.95L169.7 42.14L170.01 47.12L125.28 49.93L124.97 44.95Z" id="a1Fp41E573"></path><path d="M132.14 58.59C132.14 59.97 131.02 61.09 129.64 61.09C128.26 61.09 127.14 59.97 127.14 58.59C127.14 57.21 128.26 56.09 129.64 56.09C131.02 56.09 132.14 57.21 132.14 58.59Z" id="b1qM1YWuwo"></path></defs><g><g><g><use xlink:href="#i16wAPHG1M" opacity="1" fill="#f3fff4" fill-opacity="1"></use><g><use xlink:href="#i16wAPHG1M" opacity="1" fill-opacity="0" stroke="#7cc297" stroke-width="5" stroke-opacity="1"></use></g></g><g><use xlink:href="#a1B1GWrDoq" opacity="1" fill="#ffd6b6" fill-opacity="1"></use><g><use xlink:href="#a1B1GWrDoq" opacity="1" fill-opacity="0" stroke="#000000" stroke-width="4" stroke-opacity="0"></use></g></g><g><use xlink:href="#c1SOpeexNc" opacity="1" fill="#ffd6b6" fill-opacity="1"></use><g><use xlink:href="#c1SOpeexNc" opacity="1" fill-opacity="0" stroke="#000000" stroke-width="5" stroke-opacity="0"></use></g></g><g><use xlink:href="#d17mahsVYq" opacity="1" fill="#ffd6b6" fill-opacity="1"></use><g><use xlink:href="#d17mahsVYq" opacity="1" fill-opacity="0" stroke="#000000" stroke-width="5" stroke-opacity="0"></use></g></g><g><use xlink:href="#g38XHS9Y" opacity="1" fill="#354d62" fill-opacity="1"></use><g><use xlink:href="#g38XHS9Y" opacity="1" fill-opacity="0" stroke="#000000" stroke-width="0.5" stroke-opacity="0"></use></g></g><g><use xlink:href="#a1fQQ0WD2v" opacity="1" fill="#d0e3eb" fill-opacity="1"></use><g><use xlink:href="#a1fQQ0WD2v" opacity="1" fill-opacity="0" stroke="#000000" stroke-width="4" stroke-opacity="0"></use></g></g><g><use xlink:href="#ftpZS3c1w" opacity="1" fill="#d0e3eb" fill-opacity="1"></use><g><use xlink:href="#ftpZS3c1w" opacity="1" fill-opacity="0" stroke="#000000" stroke-width="4" stroke-opacity="0"></use></g></g><g><use xlink:href="#e1MZl8L0w" opacity="1" fill="#273951" fill-opacity="1"></use><g><use xlink:href="#e1MZl8L0w" opacity="1" fill-opacity="0" stroke="#000000" stroke-width="4" stroke-opacity="0"></use></g></g><g><use xlink:href="#b40HnVsil" opacity="1" fill="#d0e3eb" fill-opacity="1"></use><g><use xlink:href="#b40HnVsil" opacity="1" fill-opacity="0" stroke="#000000" stroke-width="4" stroke-opacity="0"></use></g></g><g><use xlink:href="#c2q8DqZqu8" opacity="1" fill="#d0e3eb" fill-opacity="1"></use><g><use xlink:href="#c2q8DqZqu8" opacity="1" fill-opacity="0" stroke="#000000" stroke-width="4" stroke-opacity="0"></use></g></g><g><use xlink:href="#ccPQMGAnz" opacity="1" fill="#273951" fill-opacity="1"></use><g><use xlink:href="#ccPQMGAnz" opacity="1" fill-opacity="0" stroke="#000000" stroke-width="4" stroke-opacity="0"></use></g></g><g><use xlink:href="#a2gUtbfrpn" opacity="1" fill="#354d62" fill-opacity="1"></use><g><use xlink:href="#a2gUtbfrpn" opacity="1" fill-opacity="0" stroke="#000000" stroke-width="5" stroke-opacity="0"></use></g></g><g><use xlink:href="#d1mcu2oUmz" opacity="1" fill="#354d62" fill-opacity="1"></use><g><use xlink:href="#d1mcu2oUmz" opacity="1" fill-opacity="0" stroke="#000000" stroke-width="5" stroke-opacity="0"></use></g></g><g><use xlink:href="#e1aZmRIUyL" opacity="1" fill="#ffd6b6" fill-opacity="1"></use><g><use xlink:href="#e1aZmRIUyL" opacity="1" fill-opacity="0" stroke="#000000" stroke-width="5" stroke-opacity="0"></use></g></g><g><use xlink:href="#g6Bbsst10W" opacity="1" fill="#5acfd6" fill-opacity="1"></use><g><use xlink:href="#g6Bbsst10W" opacity="1" fill-opacity="0" stroke="#000000" stroke-width="0.5" stroke-opacity="0"></use></g></g><g><use xlink:href="#f18IRENKyD" opacity="1" fill="#5acfd6" fill-opacity="1"></use><g><use xlink:href="#f18IRENKyD" opacity="1" fill-opacity="0" stroke="#000000" stroke-width="0.5" stroke-opacity="0"></use></g></g><g><use xlink:href="#b2FhA61stw" opacity="1" fill="#ffd6b6" fill-opacity="1"></use><g><use xlink:href="#b2FhA61stw" opacity="1" fill-opacity="0" stroke="#000000" stroke-width="0.5" stroke-opacity="0"></use></g></g><g><use xlink:href="#ahdGeISC4" opacity="1" fill="#ffd6b6" fill-opacity="1"></use><g><use xlink:href="#ahdGeISC4" opacity="1" fill-opacity="0" stroke="#000000" stroke-width="4" stroke-opacity="0"></use></g></g><g><use xlink:href="#a7vNdP430" opacity="1" fill="#ffcaa0" fill-opacity="1"></use><g><use xlink:href="#a7vNdP430" opacity="1" fill-opacity="0" stroke="#000000" stroke-width="5" stroke-opacity="0"></use></g></g><g><use xlink:href="#cj2b9WW7j" opacity="1" fill="#ffd6b6" fill-opacity="1"></use><g><use xlink:href="#cj2b9WW7j" opacity="1" fill-opacity="0" stroke="#000000" stroke-width="1" stroke-opacity="0"></use></g></g><g><use xlink:href="#etsDVWBJN" opacity="1" fill="#273951" fill-opacity="1"></use><g><use xlink:href="#etsDVWBJN" opacity="1" fill-opacity="0" stroke="#000000" stroke-width="1" stroke-opacity="0"></use></g></g><g><use xlink:href="#aeIbR9MwQ" opacity="1" fill="#273951" fill-opacity="1"></use><g><use xlink:href="#aeIbR9MwQ" opacity="1" fill-opacity="0" stroke="#000000" stroke-width="5" stroke-opacity="0"></use></g></g><g><use xlink:href="#dou1ppTKP" opacity="1" fill="#ffd6b6" fill-opacity="1"></use><g><use xlink:href="#dou1ppTKP" opacity="1" fill-opacity="0" stroke="#000000" stroke-width="5" stroke-opacity="0"></use></g></g><g><use xlink:href="#a1Fp41E573" opacity="1" fill="#ffffff" fill-opacity="1"></use><g><use xlink:href="#a1Fp41E573" opacity="1" fill-opacity="0" stroke="#000000" stroke-width="5" stroke-opacity="0"></use></g></g><g><use xlink:href="#b1qM1YWuwo" opacity="1" fill="#000000" fill-opacity="1"></use></g></g></g></svg>