<?xml version="1.0" encoding="UTF-8" standalone="no"?>
<!DOCTYPE svg PUBLIC "-//W3C//DTD SVG 1.1//EN" "http://www.w3.org/Graphics/SVG/1.1/DTD/svg11.dtd">
<svg version="1.1" xmlns="http://www.w3.org/2000/svg" xmlns:xlink="http://www.w3.org/1999/xlink" preserveAspectRatio="xMidYMid meet" viewBox="0 0 300 300" width="300" height="300"><defs><path d="M297.5 150C297.5 231.41 231.41 297.5 150 297.5C68.59 297.5 2.5 231.41 2.5 150C2.5 68.59 68.59 2.5 150 2.5C231.41 2.5 297.5 68.59 297.5 150Z" id="f2wrCi0AC"></path><path d="M225.1 53.38C133.67 53.38 82.87 53.38 72.71 53.38C62.19 53.38 53.67 61.91 53.67 72.43C53.67 87.66 53.67 209.57 53.67 224.81C53.67 235.33 62.19 243.85 72.71 243.85C87.95 243.85 209.86 243.85 225.1 243.85C235.62 243.85 244.15 235.33 244.15 224.81C244.15 209.57 244.15 87.66 244.15 72.43C244.15 61.91 235.62 53.38 225.1 53.38" id="d5cRLoRmc"></path><path d="M225.1 234.33L72.71 234.33L72.71 81.95L72.71 224.81L225.1 224.81L225.1 234.33" id="dkNESxHl8"></path><path d="M72.71 224.81L225.1 224.81L225.1 72.43L72.71 72.43L72.71 224.81Z" id="c2Bf20Ctgh"></path><path d="M101.29 120.04L196.53 120.04L196.53 110.52L101.29 110.52L101.29 120.04Z" id="a7A4r21NLC"></path><path d="M101.29 139.09L196.53 139.09L196.53 129.57L101.29 129.57L101.29 139.09Z" id="b18xqK7NBo"></path><path d="M101.29 158.14L196.53 158.14L196.53 148.62L101.29 148.62L101.29 158.14Z" id="a715XcWj"></path><path d="M101.29 177.19L196.53 177.19L196.53 167.66L101.29 167.66L101.29 177.19Z" id="j1zp67u9Au"></path><path d="M101.29 196.24L196.53 196.24L196.53 186.71L101.29 186.71L101.29 196.24Z" id="b6t9drenu"></path><path d="M110.81 72.43L187 72.43L187 53.38L110.81 53.38L110.81 72.43Z" id="ic4PI5qNK"></path><path d="M172.72 91.47C144.14 91.47 128.27 91.47 125.1 91.47C117.21 91.47 110.81 85.08 110.81 77.19C110.81 76.87 110.81 75.28 110.81 72.43L187 72.43C187 75.28 187 76.87 187 77.19C187 85.08 180.61 91.47 172.72 91.47" id="b7nDOGMqf"></path><path d="M172.72 43.85L110.81 43.85C110.81 58.14 110.81 66.08 110.81 67.66C110.81 75.55 117.21 81.95 125.1 81.95C129.86 81.95 167.95 81.95 172.72 81.95C180.61 81.95 187 75.55 187 67.66C187 66.08 187 58.14 187 43.85L172.72 43.85" id="a11uKa2upg"></path><path d="M261.15 212.66C261.15 237.5 240.98 257.66 216.15 257.66C191.31 257.66 171.15 237.5 171.15 212.66C171.15 187.83 191.31 167.66 216.15 167.66C240.98 167.66 261.15 187.83 261.15 212.66Z" id="f3eIp6Gh8B"></path><path d="M217.99 226.93L217.99 226.94L206.12 238.16L184.15 217.37L196.01 206.14L206.12 215.7L236.28 187.16L248.15 198.39L217.99 226.93Z" id="d5JYa0KUPC"></path></defs><g><g><g><use xlink:href="#f2wrCi0AC" opacity="1" fill="#ecf6ff" fill-opacity="1"></use><g><use xlink:href="#f2wrCi0AC" opacity="1" fill-opacity="0" stroke="#88a7c5" stroke-width="5" stroke-opacity="1"></use></g></g><g><use xlink:href="#d5cRLoRmc" opacity="1" fill="#d5915b" fill-opacity="1"></use><g><use xlink:href="#d5cRLoRmc" opacity="1" fill-opacity="0" stroke="#000000" stroke-width="1" stroke-opacity="0"></use></g></g><g><use xlink:href="#dkNESxHl8" opacity="1" fill="#ae7a51" fill-opacity="1"></use><g><use xlink:href="#dkNESxHl8" opacity="1" fill-opacity="0" stroke="#000000" stroke-width="1" stroke-opacity="0"></use></g></g><g><use xlink:href="#c2Bf20Ctgh" opacity="1" fill="#fffffe" fill-opacity="1"></use><g><use xlink:href="#c2Bf20Ctgh" opacity="1" fill-opacity="0" stroke="#000000" stroke-width="1" stroke-opacity="0"></use></g></g><g><use xlink:href="#a7A4r21NLC" opacity="1" fill="#dedeca" fill-opacity="1"></use><g><use xlink:href="#a7A4r21NLC" opacity="1" fill-opacity="0" stroke="#000000" stroke-width="1" stroke-opacity="0"></use></g></g><g><use xlink:href="#b18xqK7NBo" opacity="1" fill="#dedeca" fill-opacity="1"></use><g><use xlink:href="#b18xqK7NBo" opacity="1" fill-opacity="0" stroke="#000000" stroke-width="1" stroke-opacity="0"></use></g></g><g><use xlink:href="#a715XcWj" opacity="1" fill="#dedeca" fill-opacity="1"></use><g><use xlink:href="#a715XcWj" opacity="1" fill-opacity="0" stroke="#000000" stroke-width="1" stroke-opacity="0"></use></g></g><g><use xlink:href="#j1zp67u9Au" opacity="1" fill="#dedeca" fill-opacity="1"></use><g><use xlink:href="#j1zp67u9Au" opacity="1" fill-opacity="0" stroke="#000000" stroke-width="1" stroke-opacity="0"></use></g></g><g><use xlink:href="#b6t9drenu" opacity="1" fill="#dedeca" fill-opacity="1"></use><g><use xlink:href="#b6t9drenu" opacity="1" fill-opacity="0" stroke="#000000" stroke-width="1" stroke-opacity="0"></use></g></g><g><use xlink:href="#ic4PI5qNK" opacity="1" fill="#ae7a51" fill-opacity="1"></use><g><use xlink:href="#ic4PI5qNK" opacity="1" fill-opacity="0" stroke="#000000" stroke-width="1" stroke-opacity="0"></use></g></g><g><use xlink:href="#b7nDOGMqf" opacity="1" fill="#cfcdc8" fill-opacity="1"></use><g><use xlink:href="#b7nDOGMqf" opacity="1" fill-opacity="0" stroke="#000000" stroke-width="1" stroke-opacity="0"></use></g></g><g><use xlink:href="#a11uKa2upg" opacity="1" fill="#4c5665" fill-opacity="1"></use><g><use xlink:href="#a11uKa2upg" opacity="1" fill-opacity="0" stroke="#000000" stroke-width="1" stroke-opacity="0"></use></g></g><g><use xlink:href="#f3eIp6Gh8B" opacity="1" fill="#306c90" fill-opacity="1"></use></g><g><use xlink:href="#d5JYa0KUPC" opacity="1" fill="#ffffff" fill-opacity="1"></use></g></g></g></svg>