<?xml version="1.0" encoding="UTF-8" standalone="no"?>
<!DOCTYPE svg PUBLIC "-//W3C//DTD SVG 1.1//EN" "http://www.w3.org/Graphics/SVG/1.1/DTD/svg11.dtd">
<svg version="1.1" xmlns="http://www.w3.org/2000/svg" xmlns:xlink="http://www.w3.org/1999/xlink" preserveAspectRatio="xMidYMid meet" viewBox="0 0 300 300" width="300" height="300"><defs><path d="M297.5 150C297.5 231.41 231.41 297.5 150 297.5C68.59 297.5 2.5 231.41 2.5 150C2.5 68.59 68.59 2.5 150 2.5C231.41 2.5 297.5 68.59 297.5 150Z" id="buLOflsG9"></path><path d="M50.56 236.24L50.56 60.39" id="b1gAFX2o3y"></path><path d="M257.3 214.33L27.53 212.64" id="c1rCTwX2GM"></path><path d="M60 138L90 138L90 208L60 208L60 138Z" id="d5v7R91iM6"></path><path d="M100 108L130 108L130 208L100 208L100 108Z" id="c2izZhdWwc"></path><path d="M140 115.53L170 115.53L170 208L140 208L140 115.53Z" id="b1w0Di3zHA"></path><path d="M180 96.42L210 96.42L210 208L180 208L180 96.42Z" id="ag42B2qMY"></path><path d="M220 67.22L250 67.22L250 208L220 208L220 67.22Z" id="c1AuNsnuLM"></path><path d="M257.31 111.6L155 167.14L120.79 150.01L55.62 183.43" id="b1d0QYgNDS"></path><path d="M257.3 111.6L155 167.13L120.79 150L55.62 183.43" id="a33Vls31y5"></path><path d="M264.81 112.05L261.44 118.24L257.77 111.6L254.11 104.96L261.14 105.41L268.17 105.86L264.81 112.05Z" id="b3icnFESAT"></path></defs><g><g><g><use xlink:href="#buLOflsG9" opacity="1" fill="#fcf2ff" fill-opacity="1"></use><g><use xlink:href="#buLOflsG9" opacity="1" fill-opacity="0" stroke="#b288c5" stroke-width="5" stroke-opacity="1"></use></g></g><g><g><use xlink:href="#b1gAFX2o3y" opacity="1" fill-opacity="0" stroke="#000000" stroke-width="4" stroke-opacity="1"></use></g></g><g><g><use xlink:href="#c1rCTwX2GM" opacity="1" fill-opacity="0" stroke="#000000" stroke-width="4" stroke-opacity="1"></use></g></g><g><use xlink:href="#d5v7R91iM6" opacity="1" fill="#ce46a2" fill-opacity="1"></use></g><g><use xlink:href="#c2izZhdWwc" opacity="1" fill="#8551b9" fill-opacity="1"></use></g><g><use xlink:href="#b1w0Di3zHA" opacity="1" fill="#ff6868" fill-opacity="1"></use></g><g><use xlink:href="#ag42B2qMY" opacity="1" fill="#4da799" fill-opacity="1"></use></g><g><use xlink:href="#c1AuNsnuLM" opacity="1" fill="#7274d2" fill-opacity="1"></use></g><g><g><use xlink:href="#b1d0QYgNDS" opacity="1" fill-opacity="0" stroke="#ffffff" stroke-width="10" stroke-opacity="1"></use></g></g><g><g><use xlink:href="#a33Vls31y5" opacity="1" fill-opacity="0" stroke="#333333" stroke-width="5" stroke-opacity="1"></use></g></g><g><use xlink:href="#b3icnFESAT" opacity="1" fill="#333333" fill-opacity="1"></use><g><use xlink:href="#b3icnFESAT" opacity="1" fill-opacity="0" stroke="#333333" stroke-width="3" stroke-opacity="1"></use></g></g></g></g></svg>