<?xml version="1.0" encoding="UTF-8" standalone="no"?>
<!DOCTYPE svg PUBLIC "-//W3C//DTD SVG 1.1//EN" "http://www.w3.org/Graphics/SVG/1.1/DTD/svg11.dtd">
<svg version="1.1" xmlns="http://www.w3.org/2000/svg" xmlns:xlink="http://www.w3.org/1999/xlink" preserveAspectRatio="xMidYMid meet" viewBox="0 0 200 200" width="200" height="200"><defs><path d="M0 -0.5L200 -0.5L200 200.5L0 200.5L0 -0.5Z" id="d6VSlslTy"></path><radialGradient id="gradientcEmg4vpqE" gradientUnits="userSpaceOnUse" cx="0.79" cy="0.56" r="279.31"><stop style="stop-color: #4c95ab;stop-opacity: 1" offset="0%"></stop><stop style="stop-color: #2a5160;stop-opacity: 1" offset="100%"></stop></radialGradient><path d="M161.72 114.14L83.3 114.14L161.72 114.14Z" id="e3znloRVSR"></path><path d="M178.85 64.75C172.06 64.75 167.81 64.75 166.11 64.75C159.14 64.75 152.25 66.27 145.93 69.21C142 71.04 148.03 68.23 146.16 69.11C134.03 74.75 126.28 86.93 126.31 100.31C126.33 113.6 126.4 146.83 126.51 200" id="g60WueZn2O"></path><path d="M92 123.64C92 101.42 92 87.53 92 81.97C92 69.23 81.67 58.89 68.92 58.89C64.33 58.89 73.1 58.89 68.37 58.89C56.02 58.89 46 68.91 46 81.27C46 86.92 46 101.04 46 123.64" id="bUSBbdZgj"></path><path d="M46 -1.86L46 119.64" id="bGgeBHpGK"></path></defs><g><g><g><use xlink:href="#d6VSlslTy" opacity="1" fill="url(#gradientcEmg4vpqE)"></use></g><g><g><use xlink:href="#e3znloRVSR" opacity="1" fill-opacity="0" stroke="#ffffff" stroke-width="19" stroke-opacity="1"></use></g></g><g><g><use xlink:href="#g60WueZn2O" opacity="1" fill-opacity="0" stroke="#ffffff" stroke-width="19" stroke-opacity="1"></use></g></g><g><g><use xlink:href="#bUSBbdZgj" opacity="1" fill-opacity="0" stroke="#ffffff" stroke-width="19" stroke-opacity="1"></use></g></g><g><g><use xlink:href="#bGgeBHpGK" opacity="1" fill-opacity="0" stroke="#ffffff" stroke-width="19" stroke-opacity="1"></use></g></g></g></g></svg>